{
    "asset" : {
        "generator" : "Khronos glTF Blender I/O v3.4.49",
        "version" : "2.0"
    },
    "scene" : 0,
    "scenes" : [
        {
            "name" : "Scene",
            "nodes" : [
                5
            ]
        }
    ],
    "nodes" : [
        {
            "mesh" : 0,
            "name" : "Object_2"
        },
        {
            "mesh" : 1,
            "name" : "Object_3.001"
        },
        {
            "mesh" : 2,
            "name" : "Object_4"
        },
        {
            "mesh" : 3,
            "name" : "Object_5"
        },
        {
            "children" : [
                0,
                1,
                2,
                3
            ],
            "name" : "New.OBJ.cleaner.materialmerger.gles"
        },
        {
            "children" : [
                4
            ],
            "name" : "Sketchfab_model",
            "rotation" : [
                -0.70710688829422,
                0,
                0,
                0.7071066498756409
            ]
        }
    ],
    "materials" : [
        {
            "doubleSided" : true,
            "name" : "material_0.002",
            "pbrMetallicRoughness" : {}
        }
    ],
    "meshes" : [
        {
            "name" : "Object_0.001",
            "primitives" : [
                {
                    "attributes" : {
                        "POSITION" : 0,
                        "NORMAL" : 1
                    },
                    "indices" : 2,
                    "material" : 0
                }
            ]
        },
        {
            "name" : "Object_1.002",
            "primitives" : [
                {
                    "attributes" : {
                        "POSITION" : 3,
                        "NORMAL" : 4
                    },
                    "indices" : 5,
                    "material" : 0
                }
            ]
        },
        {
            "name" : "Object_2.001",
            "primitives" : [
                {
                    "attributes" : {
                        "POSITION" : 6,
                        "NORMAL" : 7
                    },
                    "indices" : 8,
                    "material" : 0
                }
            ]
        },
        {
            "name" : "Object_3.001",
            "primitives" : [
                {
                    "attributes" : {
                        "POSITION" : 9,
                        "NORMAL" : 10
                    },
                    "indices" : 11,
                    "material" : 0
                }
            ]
        }
    ],
    "accessors" : [
        {
            "bufferView" : 0,
            "componentType" : 5126,
            "count" : 194231,
            "max" : [
                0.9369075298309326,
                1.3371340036392212,
                0.931511402130127
            ],
            "min" : [
                -0.9368924498558044,
                -1.1223920583724976,
                -0.6999451518058777
            ],
            "type" : "VEC3"
        },
        {
            "bufferView" : 1,
            "componentType" : 5126,
            "count" : 194231,
            "type" : "VEC3"
        },
        {
            "bufferView" : 2,
            "componentType" : 5125,
            "count" : 957804,
            "type" : "SCALAR"
        },
        {
            "bufferView" : 3,
            "componentType" : 5126,
            "count" : 65654,
            "max" : [
                0.9360730648040771,
                1.3371340036392212,
                0.9214510917663574
            ],
            "min" : [
                -0.9368924498558044,
                -1.1223920583724976,
                -0.6998445987701416
            ],
            "type" : "VEC3"
        },
        {
            "bufferView" : 4,
            "componentType" : 5126,
            "count" : 65654,
            "type" : "VEC3"
        },
        {
            "bufferView" : 5,
            "componentType" : 5125,
            "count" : 308373,
            "type" : "SCALAR"
        },
        {
            "bufferView" : 6,
            "componentType" : 5126,
            "count" : 39221,
            "max" : [
                0.9369075298309326,
                1.334150791168213,
                0.8631786704063416
            ],
            "min" : [
                0.005671429913491011,
                -1.1223920583724976,
                -0.699920117855072
            ],
            "type" : "VEC3"
        },
        {
            "bufferView" : 7,
            "componentType" : 5126,
            "count" : 39221,
            "type" : "VEC3"
        },
        {
            "bufferView" : 8,
            "componentType" : 5123,
            "count" : 150408,
            "type" : "SCALAR"
        },
        {
            "bufferView" : 9,
            "componentType" : 5126,
            "count" : 23718,
            "max" : [
                0.394413024187088,
                -0.832675576210022,
                0.3002513647079468
            ],
            "min" : [
                -0.3944073021411896,
                -0.9389151334762573,
                0.17411567270755768
            ],
            "type" : "VEC3"
        },
        {
            "bufferView" : 10,
            "componentType" : 5126,
            "count" : 23718,
            "type" : "VEC3"
        },
        {
            "bufferView" : 11,
            "componentType" : 5123,
            "count" : 142284,
            "type" : "SCALAR"
        }
    ],
    "bufferViews" : [
        {
            "buffer" : 0,
            "byteLength" : 2330772,
            "byteOffset" : 0,
            "target" : 34962
        },
        {
            "buffer" : 0,
            "byteLength" : 2330772,
            "byteOffset" : 2330772,
            "target" : 34962
        },
        {
            "buffer" : 0,
            "byteLength" : 3831216,
            "byteOffset" : 4661544,
            "target" : 34963
        },
        {
            "buffer" : 0,
            "byteLength" : 787848,
            "byteOffset" : 8492760,
            "target" : 34962
        },
        {
            "buffer" : 0,
            "byteLength" : 787848,
            "byteOffset" : 9280608,
            "target" : 34962
        },
        {
            "buffer" : 0,
            "byteLength" : 1233492,
            "byteOffset" : 10068456,
            "target" : 34963
        },
        {
            "buffer" : 0,
            "byteLength" : 470652,
            "byteOffset" : 11301948,
            "target" : 34962
        },
        {
            "buffer" : 0,
            "byteLength" : 470652,
            "byteOffset" : 11772600,
            "target" : 34962
        },
        {
            "buffer" : 0,
            "byteLength" : 300816,
            "byteOffset" : 12243252,
            "target" : 34963
        },
        {
            "buffer" : 0,
            "byteLength" : 284616,
            "byteOffset" : 12544068,
            "target" : 34962
        },
        {
            "buffer" : 0,
            "byteLength" : 284616,
            "byteOffset" : 12828684,
            "target" : 34962
        },
        {
            "buffer" : 0,
            "byteLength" : 284568,
            "byteOffset" : 13113300,
            "target" : 34963
        }
    ],
    "buffers" : [
        {
            "byteLength" : 13397868,
            "uri" : "cloud2.bin"
        }
    ]
}
